<svg width="14" height="14" viewBox="0 0 14 14" fill="none" xmlns="http://www.w3.org/2000/svg">
<path opacity="0.5" d="M1.70951 8.88241C0.939579 8.13767 0.939579 6.9302 1.70951 6.18546L5.60617 2.41625C6.3761 1.67151 7.6244 1.67151 8.39432 2.41625L12.291 6.18546C13.0609 6.9302 13.0609 8.13767 12.291 8.88241L8.39433 12.6516C7.6244 13.3964 6.3761 13.3964 5.60617 12.6516L1.70951 8.88241Z" fill="black"/>
<path d="M1.70951 8.11947C0.939579 7.37473 0.939579 6.16726 1.70951 5.42252L5.60617 1.65331C6.3761 0.908569 7.6244 0.908568 8.39432 1.65331L12.291 5.42252C13.0609 6.16726 13.0609 7.37473 12.291 8.11947L8.39433 11.8887C7.6244 12.6334 6.3761 12.6334 5.60617 11.8887L1.70951 8.11947Z" fill="#D1026E"/>
<path fill-rule="evenodd" clip-rule="evenodd" d="M1.55167 5.27008L5.44833 1.50088C6.30529 0.671945 7.69471 0.671944 8.55167 1.50088L12.4483 5.27008C13.3053 6.09901 13.3053 7.44298 12.4483 8.27191L8.55167 12.0411C7.69471 12.87 6.3053 12.87 5.44833 12.0411L1.55167 8.27191C0.694705 7.44298 0.694705 6.09901 1.55167 5.27008ZM1.70926 5.42252C0.939332 6.16726 0.939332 7.37473 1.70926 8.11947L5.60592 11.8887C6.37585 12.6334 7.62415 12.6334 8.39408 11.8887L12.2907 8.11947C13.0607 7.37473 13.0607 6.16726 12.2907 5.42252L8.39408 1.65331C7.62415 0.908569 6.37585 0.908569 5.60592 1.65331L1.70926 5.42252Z" fill="black"/>
<mask id="mask0_2012_4667" style="mask-type:alpha" maskUnits="userSpaceOnUse" x="1" y="1" width="12" height="12">
<path d="M1.70951 8.11972C0.939579 7.37497 0.939579 6.16751 1.70951 5.42276L5.60617 1.65356C6.3761 0.908813 7.6244 0.908812 8.39432 1.65356L12.291 5.42276C13.0609 6.16751 13.0609 7.37497 12.291 8.11972L8.39433 11.8889C7.6244 12.6337 6.3761 12.6337 5.60617 11.8889L1.70951 8.11972Z" fill="#FF2395"/>
</mask>
<g mask="url(#mask0_2012_4667)">
<path d="M0.898438 0.868652L7.00158 0.868652V6.77217H0.898438L0.898438 0.868652Z" fill="#FF9BCF"/>
<path d="M7.00195 0.852295L13.1051 0.852295V6.75581H7.00195V0.852295Z" fill="#FF72BB"/>
</g>
<mask id="mask1_2012_4667" style="mask-type:alpha" maskUnits="userSpaceOnUse" x="1" y="1" width="12" height="12">
<path d="M1.70951 8.11972C0.939579 7.37497 0.939579 6.16751 1.70951 5.42276L5.60617 1.65356C6.3761 0.908813 7.6244 0.908812 8.39432 1.65356L12.291 5.42276C13.0609 6.16751 13.0609 7.37497 12.291 8.11972L8.39433 11.8889C7.6244 12.6337 6.3761 12.6337 5.60617 11.8889L1.70951 8.11972Z" fill="#D1026E"/>
</mask>
<g mask="url(#mask1_2012_4667)">
<path d="M2.21616 4.46222L4.59863 2.14136L6.96917 6.84031L2.21616 4.46222Z" fill="white"/>
<path d="M2.17029 9.0125L4.49313 11.2654L6.51431 7.40472L2.17029 9.0125Z" fill="#FF72BB"/>
<path d="M11.6907 9.11663L9.35059 11.4983L7.28066 7.40475L11.6907 9.11663Z" fill="#FF2395"/>
<path d="M6.99691 13.1024L4.71656 11.2397L6.99691 7.29993V6.75623H6.6972L2.31404 9.05456L0.52832 6.75623H6.6972H6.99691V6.22647V0.439697L9.41389 2.16995L6.99691 6.22647V6.75623H7.88165L12.1036 4.4256L13.4727 6.75623H7.88165H6.99691V7.29993V13.1024Z" fill="#FF2395"/>
<path fill-rule="evenodd" clip-rule="evenodd" d="M9.03493 11.4197L4.62598 2.29839L5.01423 2.1228L9.42317 11.2441L9.03493 11.4197Z" fill="black"/>
<path fill-rule="evenodd" clip-rule="evenodd" d="M4.77653 11.3569L9.47677 2.37277L9.09436 2.18558L4.39412 11.1697L4.77653 11.3569Z" fill="black"/>
<path fill-rule="evenodd" clip-rule="evenodd" d="M11.8778 4.85471L2.30397 9.16699L2.12305 8.79117L11.6968 4.47889L11.8778 4.85471Z" fill="black"/>
<path fill-rule="evenodd" clip-rule="evenodd" d="M11.7491 8.91316L2.44535 4.36279L2.25195 4.73276L11.5557 9.28313L11.7491 8.91316Z" fill="black"/>
</g>
<path d="M10.6454 6.77108C10.6454 8.71855 9.01326 10.2973 6.99994 10.2973C4.98661 10.2973 3.35449 8.71855 3.35449 6.77108C3.35449 4.82361 4.98661 3.24487 6.99994 3.24487C9.01326 3.24487 10.6454 4.82361 10.6454 6.77108Z" fill="#440127"/>
<path fill-rule="evenodd" clip-rule="evenodd" d="M6.4691 4.1062C6.01267 4.1062 5.64266 4.46411 5.64266 4.90561C5.64266 5.02698 5.67063 5.14204 5.72066 5.24508C4.92627 5.63363 4.3877 6.38671 4.3877 7.25202C4.3877 8.51521 5.53541 9.53922 6.9512 9.53922C8.36698 9.53922 9.5147 8.51521 9.5147 7.25202C9.5147 6.39119 8.98168 5.64144 8.19406 5.25114C8.24596 5.14656 8.27503 5.02937 8.27503 4.90561C8.27503 4.46411 7.90502 4.1062 7.44859 4.1062H6.4691ZM8.44579 6.28382C8.51258 6.38322 8.48343 6.51617 8.38067 6.58078L7.61545 7.06191C7.51269 7.12651 7.37523 7.09831 7.30844 6.99891C7.24165 6.89951 7.2708 6.76656 7.37356 6.70195L8.13879 6.22082C8.24155 6.15622 8.379 6.18442 8.44579 6.28382ZM6.46761 6.70195C6.57037 6.76656 6.59953 6.89951 6.53273 6.99891C6.46594 7.09831 6.32849 7.12651 6.22573 7.06191L5.4605 6.58078C5.35774 6.51617 5.32859 6.38322 5.39538 6.28382C5.46218 6.18442 5.59963 6.15622 5.70239 6.22082L6.46761 6.70195ZM6.0502 8.81469L5.70071 7.71946C5.68771 7.67872 5.6422 7.65777 5.60356 7.67829C5.44519 7.76244 5.09725 8.01135 5.25589 8.51776C5.40585 8.99648 5.83613 8.94195 6.00346 8.90053C6.04232 8.89091 6.06203 8.85176 6.0502 8.81469ZM5.96896 7.5812L6.33503 8.71696C6.34616 8.75151 6.38148 8.7732 6.41854 8.76826L6.73282 8.72633C6.77036 8.72132 6.79846 8.69048 6.79888 8.65382L6.81261 7.45846C6.81308 7.4179 6.77968 7.38444 6.73775 7.38447C6.45617 7.38469 6.20816 7.42101 6.01149 7.49341C5.97528 7.50674 5.95743 7.54542 5.96896 7.5812ZM7.85611 8.78775L8.15864 7.67952C8.1699 7.6383 8.21448 7.61555 8.25396 7.63452C8.41578 7.71228 8.77403 7.94711 8.6371 8.45941C8.50765 8.94371 8.07542 8.90637 7.90646 8.87165C7.86723 8.86359 7.84587 8.82526 7.85611 8.78775ZM7.86909 7.58623L7.57344 8.72349C7.56351 8.76168 7.5244 8.78567 7.48446 8.77807L7.15026 8.71447C7.11457 8.70768 7.08876 8.67753 7.08851 8.64235L7.08022 7.46711C7.07993 7.42674 7.11322 7.39348 7.15495 7.39343C7.43046 7.39311 7.63651 7.42925 7.8255 7.50175C7.86006 7.51501 7.87815 7.55135 7.86909 7.58623Z" fill="#FEC1E1"/>
<path d="M6.19774 5.4399C6.28672 5.58897 6.17489 5.81256 5.94796 5.93929C5.72103 6.06602 5.46494 6.04791 5.37596 5.89883C5.28698 5.74976 5.39881 5.52617 5.62573 5.39944C5.85266 5.27271 6.10876 5.29082 6.19774 5.4399Z" fill="white"/>
</svg>
