<svg width="227" height="102" viewBox="0 0 227 102" fill="none" xmlns="http://www.w3.org/2000/svg">
<path d="M223.067 42.8994C224.598 42.8994 225.798 44.215 225.656 45.7393L220.784 98.2402C220.66 99.5773 219.538 100.6 218.195 100.6H32.5254C30.9946 100.6 29.7951 99.284 29.9365 97.7598L34.8086 45.2588C34.9327 43.9217 36.0546 42.8994 37.3975 42.8994H223.067Z" fill="#1E9EFF" stroke="black" stroke-width="1.2"/>
<mask id="mask0_2015_5043" style="mask-type:alpha" maskUnits="userSpaceOnUse" x="30" y="43" width="196" height="57">
<path d="M35.4058 45.3142C35.5013 44.2857 36.3643 43.499 37.3973 43.499H223.068C224.245 43.499 225.168 44.5113 225.059 45.6838L220.187 98.1848C220.092 99.2134 219.228 100 218.196 100H32.5252C31.3477 100 30.425 98.9877 30.5338 97.8152L35.4058 45.3142Z" fill="#D9D9D9"/>
</mask>
<g mask="url(#mask0_2015_5043)">
<rect x="25.7607" y="82.7471" width="202.538" height="19.9873" fill="#0259D0"/>
<path fill-rule="evenodd" clip-rule="evenodd" d="M153.283 83.2031H32.751L30.3652 100H150.897L151.574 95.2367L157.406 91.1289L152.709 87.2493L153.283 83.2031Z" fill="#1C7DFF"/>
<path d="M140.94 86.7285C142.11 86.7288 143.001 87.7759 142.815 88.9307L141.619 96.3672C141.471 97.2882 140.676 97.9658 139.743 97.9658H52.3076C51.1379 97.9658 50.2459 96.9186 50.4316 95.7637L51.6279 88.3271C51.7761 87.4062 52.5711 86.7285 53.5039 86.7285H140.94Z" fill="#2C3248" stroke="#4C85EB" stroke-width="0.8"/>
<mask id="mask1_2015_5043" style="mask-type:alpha" maskUnits="userSpaceOnUse" x="50" y="87" width="93" height="11">
<path d="M52.023 88.3906C52.1399 87.6635 52.7675 87.1289 53.5039 87.1289H140.94C141.863 87.1289 142.568 87.9554 142.421 88.8672L141.224 96.3037C141.108 97.0308 140.48 97.5654 139.744 97.5654H52.3075C51.384 97.5654 50.6798 96.7389 50.8265 95.8272L52.023 88.3906Z" fill="#2C3248"/>
</mask>
<g mask="url(#mask1_2015_5043)">
<rect x="48.9102" y="85.6484" width="94.5801" height="6.75195" fill="#23273C"/>
</g>

</g>
<path d="M173.543 84.2672C174.689 83.8632 175.949 84.4639 176.358 85.6083L178.808 92.4662C179.218 93.6114 178.62 94.8676 177.473 95.272L174.444 96.34C174.385 96.361 174.318 96.3532 174.266 96.3176C174.213 96.2819 174.181 96.2229 174.178 96.1595C174.177 96.1332 174.175 96.1064 174.171 96.0797C174.111 95.6706 173.727 95.3833 173.308 95.444C172.889 95.505 172.603 95.8896 172.662 96.2985C172.681 96.4277 172.732 96.5438 172.806 96.6409C172.844 96.6917 172.856 96.7585 172.837 96.8198C172.819 96.8809 172.773 96.9302 172.712 96.9514L167.01 98.9618C165.864 99.3659 164.603 98.7662 164.194 97.6217L161.744 90.7629C161.335 89.6179 161.933 88.3616 163.079 87.9571L168.555 86.0259C168.606 86.0079 168.663 86.0117 168.711 86.0358C168.76 86.06 168.796 86.1028 168.812 86.1544C168.922 86.4981 169.271 86.7243 169.648 86.6696C170.067 86.6088 170.354 86.225 170.295 85.816C170.286 85.7572 170.271 85.7014 170.25 85.6488C170.23 85.5983 170.231 85.5417 170.254 85.4923C170.276 85.4428 170.318 85.4048 170.37 85.3867L173.543 84.2672Z" fill="white" stroke="black" stroke-width="0.4" stroke-linejoin="round"/>
<path fill-rule="evenodd" clip-rule="evenodd" d="M175.982 85.7432C175.647 84.8062 174.614 84.3146 173.676 84.6455L170.681 85.7016C170.685 85.7207 170.688 85.74 170.691 85.7594C170.782 86.3912 170.339 86.9747 169.706 87.0666C169.207 87.139 168.735 86.8858 168.512 86.4665L163.213 88.335C162.275 88.6657 161.786 89.6926 162.121 90.629L164.572 97.4875C164.906 98.4245 165.939 98.916 166.877 98.5851L172.352 96.6548C172.311 96.5617 172.281 96.4616 172.266 96.3563C172.174 95.7245 172.618 95.141 173.251 95.0491C173.837 94.9641 174.387 95.3286 174.538 95.8837L177.34 94.8957C178.278 94.565 178.767 93.5381 178.432 92.6017L175.982 85.7432ZM173.543 84.2681C174.689 83.8639 175.95 84.4639 176.359 85.6085L178.809 92.467C179.219 93.6122 178.62 94.8687 177.473 95.2732L174.445 96.3411C174.385 96.3622 174.318 96.3536 174.266 96.3178C174.213 96.282 174.181 96.2234 174.178 96.1598C174.177 96.1334 174.175 96.1068 174.171 96.0799C174.112 95.6709 173.727 95.3844 173.309 95.4452C172.89 95.5059 172.603 95.8899 172.662 96.2988C172.681 96.4282 172.732 96.5446 172.806 96.6419C172.844 96.6928 172.857 96.7591 172.838 96.8204C172.82 96.8817 172.773 96.9305 172.713 96.9518L167.01 98.9626C165.864 99.3668 164.604 98.7667 164.195 97.6221L161.744 90.7637C161.335 89.6185 161.933 88.3619 163.08 87.9575L168.556 86.0266C168.607 86.0086 168.663 86.012 168.711 86.0362C168.76 86.0604 168.797 86.1032 168.813 86.1548C168.922 86.4985 169.272 86.7251 169.648 86.6705C170.067 86.6097 170.354 86.2258 170.295 85.8169C170.286 85.758 170.271 85.702 170.25 85.6493C170.23 85.5988 170.232 85.5422 170.254 85.4927C170.277 85.4432 170.318 85.405 170.37 85.3869L173.543 84.2681Z" fill="black"/>

<g filter="url(#filter2_d_2015_5043)">
<mask id="path-14-outside-3_2015_5043" maskUnits="userSpaceOnUse" x="163.56" y="84.6397" width="15.0009" height="12.2818" fill="black">
<rect fill="white" x="163.56" y="84.6397" width="15.0009" height="12.2818"/>
<path d="M169.856 89.3716C170.051 90.0372 169.91 90.6268 169.435 91.1405C169.782 91.1642 170.103 91.286 170.396 91.5059C170.689 91.7259 170.912 92.095 171.063 92.6134C171.212 93.1254 171.139 93.5878 170.843 94.0006C170.553 94.4116 170.053 94.7208 169.343 94.9281L167.077 95.5893C166.968 95.6211 166.868 95.612 166.777 95.5622C166.685 95.5059 166.621 95.417 166.585 95.2954L164.792 89.1517C164.771 89.0814 164.768 89.0338 164.781 89.0089C164.8 88.9759 164.844 88.9491 164.914 88.9285L167.103 88.2897C168.6 87.8526 169.518 88.2133 169.856 89.3716ZM167.038 89.9961L167.405 91.2537L167.453 91.2397C168.068 91.0603 168.315 90.7659 168.196 90.3563C168.13 90.1323 168.022 89.9869 167.87 89.92C167.725 89.8512 167.515 89.857 167.24 89.9373L167.038 89.9961ZM167.736 92.3864L168.1 93.6343L168.273 93.5839C168.548 93.5036 168.735 93.3936 168.833 93.2538C168.931 93.1141 168.948 92.9322 168.882 92.7082C168.817 92.4842 168.71 92.3452 168.562 92.2911C168.421 92.2351 168.213 92.2473 167.938 92.3276L167.736 92.3864ZM172.864 86.5146C173.331 86.3782 173.76 86.3259 174.151 86.3575C174.547 86.3809 174.778 86.5046 174.843 86.7286C174.908 86.9526 174.903 87.2562 174.828 87.6394C174.756 88.0143 174.663 88.2186 174.548 88.2523C174.516 88.2616 174.473 88.2568 174.419 88.2379C174.369 88.2107 174.262 88.2003 174.097 88.2067C173.937 88.2049 173.803 88.2199 173.694 88.2516C173.323 88.3599 173.06 88.5789 172.906 88.9086C172.759 89.2363 172.765 89.6722 172.923 90.2162C173.08 90.7537 173.312 91.1201 173.619 91.3152C173.932 91.5085 174.268 91.5528 174.627 91.4482C174.774 91.4053 174.931 91.3385 175.099 91.2478C175.272 91.1488 175.385 91.0497 175.44 90.9505C175.449 90.934 175.473 90.9201 175.511 90.9089C175.549 90.8977 175.641 90.9507 175.787 91.068C175.937 91.1771 176.091 91.3369 176.25 91.5475C176.406 91.7518 176.503 91.9179 176.541 92.0459C176.614 92.2955 176.48 92.5499 176.139 92.8092C175.798 93.0684 175.365 93.2746 174.84 93.4278C173.995 93.6744 173.214 93.5794 172.496 93.143C171.779 92.7066 171.262 91.9477 170.946 90.8661C170.629 89.7782 170.658 88.8426 171.033 88.0593C171.415 87.2742 172.025 86.7593 172.864 86.5146Z"/>
</mask>
<path d="M169.856 89.3716C170.051 90.0372 169.91 90.6268 169.435 91.1405C169.782 91.1642 170.103 91.286 170.396 91.5059C170.689 91.7259 170.912 92.095 171.063 92.6134C171.212 93.1254 171.139 93.5878 170.843 94.0006C170.553 94.4116 170.053 94.7208 169.343 94.9281L167.077 95.5893C166.968 95.6211 166.868 95.612 166.777 95.5622C166.685 95.5059 166.621 95.417 166.585 95.2954L164.792 89.1517C164.771 89.0814 164.768 89.0338 164.781 89.0089C164.8 88.9759 164.844 88.9491 164.914 88.9285L167.103 88.2897C168.6 87.8526 169.518 88.2133 169.856 89.3716ZM167.038 89.9961L167.405 91.2537L167.453 91.2397C168.068 91.0603 168.315 90.7659 168.196 90.3563C168.13 90.1323 168.022 89.9869 167.87 89.92C167.725 89.8512 167.515 89.857 167.24 89.9373L167.038 89.9961ZM167.736 92.3864L168.1 93.6343L168.273 93.5839C168.548 93.5036 168.735 93.3936 168.833 93.2538C168.931 93.1141 168.948 92.9322 168.882 92.7082C168.817 92.4842 168.71 92.3452 168.562 92.2911C168.421 92.2351 168.213 92.2473 167.938 92.3276L167.736 92.3864ZM172.864 86.5146C173.331 86.3782 173.76 86.3259 174.151 86.3575C174.547 86.3809 174.778 86.5046 174.843 86.7286C174.908 86.9526 174.903 87.2562 174.828 87.6394C174.756 88.0143 174.663 88.2186 174.548 88.2523C174.516 88.2616 174.473 88.2568 174.419 88.2379C174.369 88.2107 174.262 88.2003 174.097 88.2067C173.937 88.2049 173.803 88.2199 173.694 88.2516C173.323 88.3599 173.06 88.5789 172.906 88.9086C172.759 89.2363 172.765 89.6722 172.923 90.2162C173.08 90.7537 173.312 91.1201 173.619 91.3152C173.932 91.5085 174.268 91.5528 174.627 91.4482C174.774 91.4053 174.931 91.3385 175.099 91.2478C175.272 91.1488 175.385 91.0497 175.44 90.9505C175.449 90.934 175.473 90.9201 175.511 90.9089C175.549 90.8977 175.641 90.9507 175.787 91.068C175.937 91.1771 176.091 91.3369 176.25 91.5475C176.406 91.7518 176.503 91.9179 176.541 92.0459C176.614 92.2955 176.48 92.5499 176.139 92.8092C175.798 93.0684 175.365 93.2746 174.84 93.4278C173.995 93.6744 173.214 93.5794 172.496 93.143C171.779 92.7066 171.262 91.9477 170.946 90.8661C170.629 89.7782 170.658 88.8426 171.033 88.0593C171.415 87.2742 172.025 86.7593 172.864 86.5146Z" fill="#FFE30D"/>
<path d="M169.435 91.1405L168.995 90.7331L168.143 91.6538L169.394 91.7391L169.435 91.1405ZM170.396 91.5059L170.756 91.0259V91.0259L170.396 91.5059ZM170.843 94.0006L170.355 93.6509L170.352 93.6549L170.843 94.0006ZM166.777 95.5622L166.466 96.0753L166.478 96.0821L166.489 96.0883L166.777 95.5622ZM164.781 89.0089L164.255 88.7205L164.255 88.7205L164.781 89.0089ZM167.038 89.9961L166.87 89.4202L166.294 89.5883L166.462 90.1642L167.038 89.9961ZM167.405 91.2537L166.83 91.4218L166.998 91.9977L167.574 91.8296L167.405 91.2537ZM167.87 89.92L167.613 90.4621L167.621 90.4656L167.628 90.4688L167.87 89.92ZM167.736 92.3864L167.568 91.8104L166.992 91.9785L167.16 92.5545L167.736 92.3864ZM168.1 93.6343L167.524 93.8024L167.692 94.3784L168.268 94.2103L168.1 93.6343ZM168.833 93.2538L169.324 93.5985V93.5985L168.833 93.2538ZM168.562 92.2911L168.342 92.8489L168.349 92.8518L168.356 92.8545L168.562 92.2911ZM169.856 89.3716L169.28 89.5397C169.415 90.0007 169.328 90.3724 168.995 90.7331L169.435 91.1405L169.876 91.5479C170.492 90.8812 170.686 90.0737 170.432 89.2035L169.856 89.3716ZM169.435 91.1405L169.394 91.7391C169.62 91.7545 169.83 91.8316 170.036 91.986L170.396 91.5059L170.756 91.0259C170.375 90.7403 169.945 90.5739 169.476 90.5419L169.435 91.1405ZM170.396 91.5059L170.036 91.986C170.187 92.099 170.356 92.3314 170.487 92.7815L171.063 92.6134L171.639 92.4453C171.468 91.8587 171.192 91.3528 170.756 91.0259L170.396 91.5059ZM171.063 92.6134L170.487 92.7815C170.588 93.1266 170.538 93.3963 170.355 93.6509L170.843 94.0006L171.33 94.3504C171.74 93.7793 171.837 93.1241 171.639 92.4453L171.063 92.6134ZM170.843 94.0006L170.352 93.6549C170.17 93.9132 169.814 94.1656 169.174 94.3521L169.343 94.9281L169.511 95.5041C170.292 95.276 170.936 94.9101 171.333 94.3464L170.843 94.0006ZM169.343 94.9281L169.174 94.3521L166.909 95.0134L167.077 95.5893L167.245 96.1653L169.511 95.5041L169.343 94.9281ZM167.077 95.5893L166.909 95.0134C166.917 95.0109 166.941 95.0057 166.975 95.0088C167.01 95.012 167.042 95.0227 167.066 95.036L166.777 95.5622L166.489 96.0883C166.733 96.2221 166.999 96.2371 167.245 96.1653L167.077 95.5893ZM166.777 95.5622L167.088 95.0491C167.112 95.0631 167.132 95.0822 167.146 95.1023C167.16 95.1211 167.162 95.1325 167.161 95.1273L166.585 95.2954L166.009 95.4635C166.079 95.7036 166.224 95.9284 166.466 96.0753L166.777 95.5622ZM166.585 95.2954L167.161 95.1273L165.368 88.9836L164.792 89.1517L164.216 89.3199L166.009 95.4635L166.585 95.2954ZM164.792 89.1517L165.368 88.9836C165.364 88.9699 165.37 88.9851 165.372 89.0196C165.374 89.0379 165.375 89.0715 165.369 89.1149C165.363 89.1578 165.348 89.2242 165.308 89.2973L164.781 89.0089L164.255 88.7205C164.167 88.8824 164.17 89.0385 164.175 89.1069C164.181 89.189 164.199 89.2632 164.216 89.3199L164.792 89.1517ZM164.781 89.0089L165.308 89.2974C165.25 89.4016 165.175 89.4554 165.139 89.4772C165.102 89.4995 165.078 89.5057 165.082 89.5045L164.914 88.9285L164.746 88.3526C164.65 88.3806 164.396 88.4639 164.255 88.7205L164.781 89.0089ZM164.914 88.9285L165.082 89.5045L167.271 88.8657L167.103 88.2897L166.935 87.7138L164.746 88.3526L164.914 88.9285ZM167.103 88.2897L167.271 88.8657C167.962 88.6642 168.413 88.6802 168.695 88.7908C168.942 88.888 169.15 89.0945 169.28 89.5397L169.856 89.3716L170.432 89.2035C170.224 88.4904 169.804 87.9374 169.134 87.674C168.498 87.424 167.742 87.4782 166.935 87.7138L167.103 88.2897ZM167.038 89.9961L166.462 90.1642L166.83 91.4218L167.405 91.2537L167.981 91.0856L167.614 89.828L167.038 89.9961ZM167.405 91.2537L167.574 91.8296L167.622 91.8156L167.453 91.2397L167.285 90.6637L167.237 90.6777L167.405 91.2537ZM167.453 91.2397L167.622 91.8156C167.975 91.7126 168.324 91.5504 168.559 91.2703C168.828 90.9507 168.88 90.5608 168.772 90.1882L168.196 90.3563L167.62 90.5244C167.629 90.5545 167.623 90.5544 167.626 90.5347C167.628 90.5255 167.631 90.5162 167.635 90.5082C167.639 90.5004 167.641 90.4971 167.64 90.4984C167.637 90.5019 167.616 90.5248 167.556 90.5578C167.497 90.5907 167.409 90.6277 167.285 90.6637L167.453 91.2397ZM168.196 90.3563L168.772 90.1882C168.678 89.8667 168.484 89.5352 168.113 89.3711L167.87 89.92L167.628 90.4688C167.616 90.4635 167.605 90.4566 167.596 90.4495C167.588 90.4426 167.584 90.4377 167.584 90.4379C167.586 90.4395 167.602 90.4624 167.62 90.5244L168.196 90.3563ZM167.87 89.92L168.127 89.3778C167.779 89.2125 167.388 89.269 167.072 89.3613L167.24 89.9373L167.408 90.5133C167.513 90.4827 167.582 90.4736 167.62 90.4725C167.659 90.4714 167.648 90.4788 167.613 90.4621L167.87 89.92ZM167.24 89.9373L167.072 89.3613L166.87 89.4202L167.038 89.9961L167.207 90.5721L167.408 90.5133L167.24 89.9373ZM167.736 92.3864L167.16 92.5545L167.524 93.8024L168.1 93.6343L168.676 93.4662L168.312 92.2183L167.736 92.3864ZM168.1 93.6343L168.268 94.2103L168.441 94.1599L168.273 93.5839L168.105 93.0079L167.932 93.0584L168.1 93.6343ZM168.273 93.5839L168.441 94.1599C168.766 94.0651 169.11 93.9035 169.324 93.5985L168.833 93.2538L168.342 92.9091C168.353 92.8928 168.354 92.9014 168.315 92.9243C168.276 92.9474 168.209 92.9775 168.105 93.0079L168.273 93.5839ZM168.833 93.2538L169.324 93.5985C169.562 93.2599 169.555 92.8709 169.458 92.5401L168.882 92.7082L168.306 92.8763C168.323 92.9355 168.321 92.9601 168.321 92.9588C168.321 92.9575 168.322 92.9505 168.326 92.9399C168.33 92.9291 168.335 92.9184 168.342 92.9091L168.833 93.2538ZM168.882 92.7082L169.458 92.5401C169.366 92.2254 169.17 91.8745 168.769 91.7276L168.562 92.2911L168.356 92.8545C168.336 92.8471 168.318 92.8369 168.303 92.8254C168.288 92.8141 168.28 92.8045 168.277 92.8009C168.274 92.7976 168.277 92.8004 168.283 92.8129C168.289 92.8255 168.297 92.846 168.306 92.8763L168.882 92.7082ZM168.562 92.2911L168.783 91.7332C168.448 91.6005 168.075 91.6625 167.77 91.7516L167.938 92.3276L168.106 92.9035C168.215 92.8717 168.289 92.8599 168.335 92.8572C168.383 92.8544 168.377 92.8628 168.342 92.8489L168.562 92.2911ZM167.938 92.3276L167.77 91.7516L167.568 91.8104L167.736 92.3864L167.904 92.9624L168.106 92.9035L167.938 92.3276ZM174.151 86.3575L174.103 86.9557L174.116 86.9565L174.151 86.3575ZM174.828 87.6394L174.239 87.5232L174.238 87.5276L174.828 87.6394ZM174.419 88.2379L174.131 88.764L174.174 88.7879L174.221 88.8043L174.419 88.2379ZM174.097 88.2067L174.09 88.8067L174.106 88.8069L174.121 88.8063L174.097 88.2067ZM172.906 88.9086L172.362 88.6548L172.359 88.6625L172.906 88.9086ZM173.619 91.3152L173.297 91.8216L173.304 91.8259L173.619 91.3152ZM175.099 91.2478L175.385 91.7757L175.391 91.772L175.398 91.7682L175.099 91.2478ZM175.44 90.9505L174.914 90.6621L175.44 90.9505ZM175.787 91.068L175.41 91.5349L175.422 91.5444L175.434 91.5532L175.787 91.068ZM176.25 91.5475L175.77 91.9086L175.774 91.913L176.25 91.5475ZM176.139 92.8092L176.502 93.2868L176.139 92.8092ZM172.496 93.143L172.184 93.6557L172.496 93.143ZM171.033 88.0593L170.494 87.7968L170.492 87.7999L171.033 88.0593ZM172.864 86.5146L173.032 87.0905C173.445 86.9699 173.8 86.931 174.103 86.9556L174.151 86.3575L174.2 85.7595C173.721 85.7207 173.217 85.7865 172.696 85.9386L172.864 86.5146ZM174.151 86.3575L174.116 86.9565C174.188 86.9607 174.242 86.969 174.28 86.978C174.318 86.987 174.335 86.9953 174.337 86.9966C174.339 86.9972 174.324 86.9896 174.306 86.9683C174.287 86.9459 174.274 86.92 174.267 86.8967L174.843 86.7286L175.419 86.5605C175.24 85.9461 174.638 85.7852 174.187 85.7586L174.151 86.3575ZM174.843 86.7286L174.267 86.8967C174.293 86.9859 174.307 87.1785 174.239 87.5232L174.828 87.6394L175.416 87.7556C175.5 87.3339 175.524 86.9193 175.419 86.5605L174.843 86.7286ZM174.828 87.6394L174.238 87.5276C174.223 87.6082 174.208 87.6734 174.193 87.7249C174.178 87.7773 174.166 87.8089 174.158 87.8249C174.15 87.8432 174.154 87.8281 174.179 87.7997C174.205 87.7703 174.269 87.7086 174.38 87.6763L174.548 88.2523L174.716 88.8282C175.04 88.7337 175.189 88.4569 175.25 88.3228C175.326 88.1569 175.378 87.958 175.417 87.7512L174.828 87.6394ZM174.548 88.2523L174.38 87.6763C174.459 87.6532 174.524 87.6555 174.558 87.6593C174.593 87.6632 174.614 87.6705 174.617 87.6715L174.419 88.2379L174.221 88.8043C174.317 88.8379 174.505 88.8899 174.716 88.8282L174.548 88.2523ZM174.419 88.2379L174.707 87.7117C174.573 87.6379 174.434 87.6197 174.359 87.6125C174.268 87.6037 174.171 87.6034 174.074 87.6072L174.097 88.2067L174.121 88.8063C174.153 88.805 174.18 88.8047 174.201 88.805C174.223 88.8053 174.237 88.8062 174.243 88.8069C174.251 88.8077 174.246 88.8076 174.231 88.8041C174.223 88.8023 174.211 88.7989 174.195 88.7932C174.179 88.7875 174.157 88.7783 174.131 88.764L174.419 88.2379ZM174.097 88.2067L174.104 87.6068C173.907 87.6045 173.709 87.622 173.526 87.6756L173.694 88.2516L173.862 88.8276C173.896 88.8177 173.967 88.8053 174.09 88.8067L174.097 88.2067ZM173.694 88.2516L173.526 87.6756C173.001 87.8289 172.594 88.1579 172.363 88.6549L172.906 88.9086L173.45 89.1623C173.526 88.9999 173.645 88.891 173.862 88.8276L173.694 88.2516ZM172.906 88.9086L172.359 88.6625C172.127 89.1773 172.17 89.7781 172.347 90.3843L172.923 90.2162L173.499 90.048C173.359 89.5663 173.39 89.2953 173.453 89.1547L172.906 88.9086ZM172.923 90.2162L172.347 90.3843C172.524 90.9893 172.816 91.5156 173.297 91.8216L173.619 91.3152L173.941 90.8089C173.808 90.7246 173.636 90.5182 173.499 90.048L172.923 90.2162ZM173.619 91.3152L173.304 91.8259C173.764 92.1097 174.276 92.1756 174.795 92.0242L174.627 91.4482L174.459 90.8723C174.261 90.9301 174.101 90.9073 173.934 90.8045L173.619 91.3152ZM174.627 91.4482L174.795 92.0242C174.991 91.9669 175.188 91.8818 175.385 91.7757L175.099 91.2478L174.814 90.7198C174.675 90.7951 174.557 90.8436 174.459 90.8723L174.627 91.4482ZM175.099 91.2478L175.398 91.7682C175.603 91.6506 175.832 91.4834 175.966 91.2389L175.44 90.9505L174.914 90.6621C174.93 90.6332 174.939 90.6297 174.919 90.6473C174.9 90.6642 174.863 90.6916 174.801 90.7273L175.099 91.2478ZM175.44 90.9505L175.966 91.2389C175.9 91.36 175.809 91.4213 175.767 91.4457C175.722 91.4719 175.688 91.4823 175.679 91.4848L175.511 90.9089L175.343 90.3329C175.296 90.3466 175.23 90.3696 175.162 90.4097C175.096 90.4479 174.989 90.5244 174.914 90.6621L175.44 90.9505ZM175.511 90.9089L175.679 91.4848C175.593 91.51 175.519 91.5095 175.472 91.5051C175.424 91.5006 175.387 91.4906 175.366 91.4838C175.344 91.4767 175.329 91.4698 175.321 91.4662C175.317 91.4642 175.314 91.4626 175.312 91.4616C175.31 91.4605 175.309 91.4599 175.309 91.4599C175.309 91.4598 175.311 91.4612 175.316 91.4647C175.322 91.4681 175.329 91.4729 175.338 91.4795C175.356 91.4927 175.38 91.5108 175.41 91.5349L175.787 91.068L176.163 90.6011C176.082 90.5352 175.994 90.4701 175.909 90.4207C175.867 90.3964 175.806 90.3646 175.733 90.3413C175.675 90.3226 175.523 90.2802 175.343 90.3329L175.511 90.9089ZM175.787 91.068L175.434 91.5532C175.52 91.616 175.634 91.7271 175.77 91.9086L176.25 91.5475L176.729 91.1865C176.548 90.9467 176.353 90.7381 176.14 90.5828L175.787 91.068ZM176.25 91.5475L175.774 91.913C175.842 92.0013 175.89 92.0726 175.922 92.1281C175.938 92.1555 175.949 92.1767 175.956 92.1922C175.963 92.2079 175.965 92.2149 175.965 92.214L176.541 92.0459L177.117 91.8778C177.047 91.6393 176.893 91.4008 176.725 91.1821L176.25 91.5475ZM176.541 92.0459L175.965 92.214C175.961 92.2003 175.959 92.1813 175.961 92.1616C175.963 92.1432 175.968 92.1366 175.964 92.1442C175.953 92.1655 175.907 92.2312 175.775 92.3315L176.139 92.8092L176.502 93.2868C176.897 92.9864 177.299 92.5017 177.117 91.8778L176.541 92.0459ZM176.139 92.8092L175.775 92.3315C175.507 92.536 175.145 92.7138 174.672 92.8518L174.84 93.4278L175.008 94.0038C175.585 93.8355 176.089 93.6009 176.502 93.2868L176.139 92.8092ZM174.84 93.4278L174.672 92.8518C173.98 93.0537 173.374 92.9746 172.808 92.6304L172.496 93.143L172.184 93.6557C173.054 94.1842 174.01 94.295 175.008 94.0038L174.84 93.4278ZM172.496 93.143L172.808 92.6304C172.257 92.2952 171.81 91.6857 171.522 90.698L170.946 90.8661L170.37 91.0342C170.713 92.2096 171.3 93.1181 172.184 93.6557L172.496 93.143ZM170.946 90.8661L171.522 90.698C171.233 89.7077 171.28 88.9322 171.574 88.3187L171.033 88.0593L170.492 87.7999C170.035 88.7529 170.024 89.8486 170.37 91.0342L170.946 90.8661ZM171.033 88.0593L171.573 88.3218C171.881 87.6889 172.356 87.2878 173.032 87.0905L172.864 86.5146L172.696 85.9386C171.695 86.2307 170.95 86.8594 170.494 87.7968L171.033 88.0593Z" fill="black" mask="url(#path-14-outside-3_2015_5043)"/>
</g>

<path fill-rule="evenodd" clip-rule="evenodd" d="M60.161 83.2837C60.3034 82.8042 60.7669 82.4851 61.2672 82.5507L73.6308 84.1727C74.0982 84.2341 74.4492 84.6116 74.5063 85.0688C76.4323 85.9933 77.6389 88.1156 77.3442 90.3967C76.9792 93.2224 74.4482 95.2198 71.6911 94.8581C71.3712 94.8162 71.0618 94.7441 70.7654 94.645C70.2196 95.1009 69.6028 95.467 68.9383 95.7245L70.564 97.7165C71.326 98.6503 70.5681 100.061 69.3876 99.9066L61.5366 98.8766C60.3561 98.7217 59.9819 97.1621 60.9558 96.456L62.9666 94.9982C62.3623 94.5748 61.8355 94.0512 61.4059 93.4539C61.1637 93.4583 60.9186 93.4449 60.672 93.4125C57.9149 93.0508 55.9757 90.4669 56.3407 87.6412C56.6223 85.461 58.1927 83.7752 60.161 83.2837ZM60.7977 83.9176L60.8457 83.5462C60.8668 83.3832 61.0128 83.2679 61.1719 83.2888L73.5355 84.9108C73.6945 84.9317 73.8064 85.0808 73.7854 85.2438L73.7448 85.5577C75.6513 86.2138 76.8984 88.1782 76.6241 90.3023C76.3117 92.7203 74.1458 94.4296 71.7864 94.1201C71.373 94.0658 70.9811 93.9532 70.6175 93.7913C69.913 94.4694 69.048 94.9658 68.099 95.2198L68.0278 95.7714L70.0058 98.1952C70.3445 98.6102 70.0076 99.2374 69.483 99.1685L61.6319 98.1385C61.1073 98.0697 60.941 97.3765 61.3738 97.0627L63.7168 95.3641L63.8082 94.6568C62.9758 94.1782 62.2794 93.497 61.7735 92.6861C61.4455 92.7218 61.1085 92.7192 60.7674 92.6745C58.408 92.3649 56.7485 90.1538 57.0608 87.7357C57.3236 85.7009 58.899 84.168 60.7977 83.9176ZM59.6036 87.4929C59.5268 87.6651 59.4734 87.8517 59.4479 88.049C59.3571 88.7519 59.6439 89.4152 60.1479 89.8251C60.3647 90.0014 60.6217 90.1308 60.9061 90.1963C60.8764 89.9362 60.8635 89.6718 60.8683 89.4043C60.8707 89.2665 60.8779 89.1279 60.8898 88.9887C60.8973 88.9015 60.9067 88.8141 60.9181 88.7264C60.9388 88.566 60.9656 88.4079 60.9982 88.2523L60.5385 88.1921C60.4785 88.1842 60.4252 88.158 60.3832 88.1197C60.3139 88.0566 60.2755 87.9605 60.2886 87.859L60.4548 86.5724C60.0843 86.772 59.7814 87.094 59.6036 87.4929ZM72.265 90.9427C72.229 91.0859 72.1881 91.2268 72.1423 91.3653C72.109 91.4661 72.0732 91.5656 72.0349 91.6638C72.0573 91.6675 72.0798 91.6709 72.1025 91.6739C72.3503 91.7064 72.5932 91.6884 72.8214 91.6278C73.5522 91.4337 74.1321 90.8023 74.2372 89.9892C74.2892 89.5859 74.217 89.1956 74.0508 88.8587C73.9044 88.5622 73.6852 88.307 73.4137 88.1208L73.2283 89.5566C73.2152 89.6581 73.1536 89.7411 73.0707 89.7842C73.0204 89.8104 72.9622 89.8219 72.9021 89.8141L72.4425 89.7538C72.4345 89.9125 72.4202 90.0723 72.3995 90.2327C72.3882 90.3203 72.375 90.4073 72.3601 90.4935C72.3339 90.6456 72.3021 90.7953 72.265 90.9427ZM73.0873 90.5492C73.0792 90.5991 73.0706 90.6488 73.0615 90.6983C73.1327 90.6428 73.1978 90.579 73.2552 90.5082C73.2009 90.5266 73.1448 90.5404 73.0873 90.5492Z" fill="black"/>
<path fill-rule="evenodd" clip-rule="evenodd" d="M60.7675 92.6723C63.1269 92.9818 65.2928 91.2725 65.6051 88.8545C65.9175 86.4364 64.258 84.2252 61.8986 83.9157C59.5392 83.6062 57.3733 85.3155 57.0609 87.7335C56.7486 90.1516 58.4081 92.3627 60.7675 92.6723ZM61.0836 90.2261C62.1247 90.3626 63.0804 89.6084 63.2182 88.5414C63.3561 87.4744 62.6238 86.4987 61.5827 86.3621C60.5415 86.2255 59.5858 86.9798 59.448 88.0468C59.3102 89.1138 60.0424 90.0895 61.0836 90.2261Z" fill="#CE4F0A"/>
<path fill-rule="evenodd" clip-rule="evenodd" d="M71.787 94.1181C74.1464 94.4276 76.3123 92.7183 76.6247 90.3003C76.937 87.8822 75.2775 85.671 72.9181 85.3615C70.5587 85.052 68.3928 86.7613 68.0805 89.1793C67.7681 91.5974 69.4276 93.8085 71.787 94.1181ZM72.1031 91.6719C73.1442 91.8084 74.0999 91.0542 74.2378 89.9872C74.3756 88.9202 73.6433 87.9445 72.6022 87.8079C71.5611 87.6713 70.6053 88.4256 70.4675 89.4926C70.3297 90.5596 71.062 91.5353 72.1031 91.6719Z" fill="#CE4F0A"/>
<path fill-rule="evenodd" clip-rule="evenodd" d="M60.7665 92.674C63.1259 92.9835 65.2918 91.2742 65.6042 88.8562C65.9165 86.4381 64.257 84.2269 61.8976 83.9174C59.5382 83.6079 57.3723 85.3172 57.0599 87.7352C56.7476 90.1533 58.4071 92.3644 60.7665 92.674ZM61.0826 90.2278C62.1237 90.3644 63.0794 89.6101 63.2173 88.5431C63.3551 87.4761 62.6228 86.5004 61.5817 86.3638C60.5406 86.2272 59.5848 86.9815 59.447 88.0485C59.3092 89.1155 60.0415 90.0912 61.0826 90.2278Z" fill="#CE4F0A"/>
<path fill-rule="evenodd" clip-rule="evenodd" d="M71.786 94.1195C74.1455 94.4291 76.3114 92.7198 76.6237 90.3017C76.936 87.8837 75.2766 85.6725 72.9171 85.363C70.5577 85.0534 68.3918 86.7627 68.0795 89.1808C67.7671 91.5988 69.4266 93.81 71.786 94.1195ZM72.1021 91.6733C73.1432 91.8099 74.099 91.0557 74.2368 89.9887C74.3746 88.9217 73.6423 87.946 72.6012 87.8094C71.5601 87.6728 70.6044 88.427 70.4665 89.494C70.3287 90.561 71.061 91.5367 72.1021 91.6733Z" fill="#CE4F0A"/>
<path fill-rule="evenodd" clip-rule="evenodd" d="M61.1714 83.289C61.0123 83.2681 60.8662 83.3834 60.8452 83.5464L60.2881 87.8593C60.267 88.0223 60.3789 88.1714 60.538 88.1923L60.9976 88.2526C60.965 88.4081 60.9382 88.5662 60.9175 88.7267C60.4978 91.976 62.7278 94.9472 65.8983 95.3632C69.0688 95.7791 71.9792 93.4822 72.3989 90.2329C72.4197 90.0725 72.4339 89.9128 72.4419 89.754L72.9016 89.8143C73.0606 89.8352 73.2067 89.7199 73.2278 89.5569L73.7848 85.244C73.8059 85.081 73.694 84.9319 73.5349 84.911L61.1714 83.289Z" fill="#98221C"/>
<path fill-rule="evenodd" clip-rule="evenodd" d="M68.3603 93.2005L64.0694 92.6376L63.7172 95.3644L61.3742 97.0631C60.9414 97.3769 61.1077 98.07 61.6323 98.1389L69.4834 99.1689C70.008 99.2377 70.3449 98.6105 70.0062 98.1955L68.0282 95.7717L68.3603 93.2005Z" fill="#FCBC21"/>
<mask id="mask2_2015_5043" style="mask-type:alpha" maskUnits="userSpaceOnUse" x="61" y="92" width="10" height="8">
<path fill-rule="evenodd" clip-rule="evenodd" d="M68.3603 93.1993L64.0694 92.6364L63.7172 95.3632L61.3742 97.0618C60.9414 97.3756 61.1077 98.0688 61.6323 98.1376L69.4834 99.1676C70.008 99.2365 70.3449 98.6093 70.0062 98.1943L68.0282 95.7705L68.3603 93.1993Z" fill="#EB721E"/>
</mask>
<g mask="url(#mask2_2015_5043)">
<path d="M70.7605 94.5998C70.4441 96.5668 68.0961 97.8174 65.5161 97.3931C62.9361 96.9688 61.101 95.0302 61.4174 93.0633C61.7338 91.0963 64.0817 89.8457 66.6618 90.27C69.2418 90.6943 71.0768 92.6328 70.7605 94.5998Z" fill="#98221C"/>
</g>
<path fill-rule="evenodd" clip-rule="evenodd" d="M60.767 92.6735C63.1264 92.983 65.2923 91.2737 65.6047 88.8557C65.917 86.4376 64.2575 84.2265 61.8981 83.9169C59.5387 83.6074 57.3728 85.3167 57.0604 87.7347C56.7481 90.1528 58.4076 92.364 60.767 92.6735ZM61.0831 90.2273C62.1242 90.3639 63.0799 89.6096 63.2177 88.5426C63.3556 87.4756 62.6233 86.4999 61.5822 86.3633C60.5411 86.2267 59.5853 86.981 59.4475 88.048C59.3097 89.115 60.0419 90.0907 61.0831 90.2273Z" fill="#ED7527"/>
<path fill-rule="evenodd" clip-rule="evenodd" d="M71.7865 94.1191C74.146 94.4286 76.3118 92.7193 76.6242 90.3012C76.9365 87.8832 75.277 85.672 72.9176 85.3625C70.5582 85.0529 68.3923 86.7622 68.08 89.1803C67.7676 91.5984 69.4271 93.8095 71.7865 94.1191ZM72.1026 91.6728C73.1437 91.8094 74.0994 91.0552 74.2373 89.9882C74.3751 88.9212 73.6428 87.9455 72.6017 87.8089C71.5606 87.6723 70.6049 88.4266 70.467 89.4936C70.3292 90.5606 71.0615 91.5362 72.1026 91.6728Z" fill="#ED7527"/>
<path fill-rule="evenodd" clip-rule="evenodd" d="M61.1718 83.2893C61.0128 83.2684 60.8667 83.3836 60.8457 83.5467L60.2886 87.8595C60.2675 88.0226 60.3794 88.1717 60.5385 88.1925L60.9981 88.2528C60.9655 88.4084 60.9387 88.5665 60.918 88.7269C60.4983 91.9762 62.7283 94.9475 65.8988 95.3634C69.0693 95.7794 71.9797 93.4825 72.3994 90.2332C72.4202 90.0728 72.4344 89.913 72.4424 89.7542L72.902 89.8145C73.0611 89.8354 73.2072 89.7201 73.2282 89.5571L73.7853 85.2443C73.8064 85.0812 73.6945 84.9321 73.5354 84.9113L61.1718 83.2893Z" fill="#ED7527"/>
<path fill-rule="evenodd" clip-rule="evenodd" d="M68.3603 93.2007L64.0694 92.6378L63.7172 95.3647L61.3742 97.0633C60.9414 97.3771 61.1077 98.0703 61.6323 98.1391L69.4834 99.1691C70.008 99.2379 70.3449 98.6108 70.0062 98.1957L68.0282 95.772L68.3603 93.2007Z" fill="#FCBC21"/>
<mask id="mask3_2015_5043" style="mask-type:alpha" maskUnits="userSpaceOnUse" x="61" y="92" width="10" height="8">
<path fill-rule="evenodd" clip-rule="evenodd" d="M68.3603 93.1995L64.0694 92.6366L63.7172 95.3634L61.3742 97.0621C60.9414 97.3759 61.1077 98.0691 61.6323 98.1379L69.4834 99.1679C70.008 99.2367 70.3449 98.6096 70.0062 98.1945L68.0282 95.7707L68.3603 93.1995Z" fill="#EB721E"/>
</mask>
<g mask="url(#mask3_2015_5043)">
<path d="M70.7605 94.6C70.4441 96.567 68.0961 97.8176 65.5161 97.3933C62.9361 96.969 61.101 95.0305 61.4174 93.0635C61.7338 91.0965 64.0817 89.8459 66.6618 90.2702C69.2418 90.6945 71.0768 92.6331 70.7605 94.6Z" fill="#ED7527"/>
</g>
<path d="M60.9884 88.1745C60.9558 88.3301 60.9376 88.5675 60.9169 88.7279C60.4972 91.9772 62.6267 94.8505 65.6871 95.252C67.4811 95.4874 70.9574 94.2788 71.3771 91.0295C71.3979 90.8691 71.3939 90.8998 71.4177 90.7153L60.9884 88.1745Z" fill="#FCBC21"/>
<path d="M60.8452 83.5464C60.8662 83.3834 61.0123 83.2681 61.1714 83.289L72.6676 84.7972C72.8267 84.8181 72.9386 84.9672 72.9175 85.1302L72.3604 89.4431C72.3394 89.6061 72.1933 89.7214 72.0342 89.7005L60.538 88.1923C60.3789 88.1714 60.267 88.0223 60.2881 87.8593L60.8452 83.5464Z" fill="#FCBC21"/>
<path d="M6.06176 21.167L8.90554 12.65C8.99452 12.3835 9.32293 12.2713 9.56287 12.4254L20.0764 19.1776C20.2235 19.2721 20.2954 19.4438 20.2581 19.6114L19.2993 23.921C19.2486 24.149 19.0153 24.2953 18.7797 24.247L6.38116 21.7021C6.13108 21.6508 5.98304 21.4028 6.06176 21.167Z" fill="white"/>
<path d="M24.9075 5.71327L19.9191 7.064C19.6583 7.13462 19.5245 7.41445 19.6393 7.64924L24.0273 16.6256C24.1158 16.8066 24.3255 16.9004 24.5275 16.8494L27.1764 16.18C27.4017 16.1231 27.5424 15.9059 27.496 15.6868L25.4475 6.02907C25.3973 5.7924 25.1498 5.64766 24.9075 5.71327Z" fill="white"/>
<path d="M24.7251 27.4366C25.267 26.3575 26.629 25.9238 27.7179 26.4836L38.1324 31.8381C38.4968 32.0255 38.9102 32.108 39.3239 32.0758L51.1443 31.1572C52.3802 31.0612 53.4395 31.978 53.472 33.1717L53.7829 44.5888C53.7938 44.9884 53.923 45.3755 54.1552 45.7045L60.7928 55.1071C61.4868 56.0901 61.1841 57.4406 60.1277 58.0745L50.0241 64.1371C49.6705 64.3493 49.3863 64.6539 49.2049 65.0151L44.022 75.3362C43.4801 76.4153 42.1181 76.849 41.0292 76.2892L30.6147 70.9347C30.2503 70.7473 29.8369 70.6648 29.4232 70.697L17.6028 71.6155C16.3669 71.7116 15.3076 70.7948 15.2751 69.6011L14.9642 58.184C14.9533 57.7844 14.8241 57.3973 14.5919 57.0683L7.95431 47.6657C7.26032 46.6827 7.56299 45.3322 8.61938 44.6983L18.723 38.6357C19.0766 38.4235 19.3608 38.1189 19.5422 37.7577L24.7251 27.4366Z" fill="black"/>
<mask id="mask4_2015_5043" style="mask-type:alpha" maskUnits="userSpaceOnUse" x="17" y="12" width="56" height="59">
<path d="M41.3648 12.4068L53.5596 21.8929L69.1962 23.5115L66.6708 38.5151L72.9056 52.3935L58.1856 57.911L48.7838 70.1708L36.589 60.6847L20.9524 59.0662L23.4777 44.0626L17.2429 30.1842L31.963 24.6667L41.3648 12.4068Z" fill="#D9D9D9"/>
</mask>
<g mask="url(#mask4_2015_5043)">
<path d="M-1.98389 38.6731L54.9368 -3.27627L73.802 20.6405L16.8813 62.5899L-1.98389 38.6731Z" fill="#FFE25B"/>
<path d="M45.3418 41.6149L40.9044 7.06517L12.0489 28.331L45.3418 41.6149Z" fill="white"/>
<path d="M92.6675 44.5571L35.7468 86.5065L16.8816 62.5897L73.8023 20.6404L92.6675 44.5571Z" fill="#FFBE20"/>
<path d="M45.3423 41.6151L49.7797 76.1648L78.6352 54.8989L45.3423 41.6151Z" fill="#EF7527"/>
</g>
<path fill-rule="evenodd" clip-rule="evenodd" d="M54.8843 18.8643L43.7797 10.2262C42.1481 8.95705 39.7349 9.26698 38.477 10.9073L29.9157 22.0712L16.5114 27.0954C14.542 27.8336 13.5938 30.0009 14.428 31.8578L20.1055 44.4956L17.8059 58.158C17.468 60.1653 18.9331 62.0227 21.0251 62.2392L35.264 63.7132L46.3686 72.3513C48.0002 73.6204 50.4134 73.3105 51.6713 71.6702L60.2326 60.5063L73.6369 55.482C75.6063 54.7438 76.5545 52.5765 75.7203 50.7197L70.0428 38.0819L72.3424 24.4195C72.6803 22.4121 71.2152 20.5548 69.1232 20.3382L54.8843 18.8643ZM41.7169 12.6808C41.525 12.5314 41.2411 12.5679 41.0931 12.7609L32.0387 24.5677C31.9892 24.6323 31.9217 24.682 31.8441 24.7111L17.668 30.0247C17.4363 30.1115 17.3248 30.3665 17.4229 30.585L23.4273 43.9505C23.4601 44.0237 23.4705 44.1045 23.4572 44.1835L21.0252 58.6327C20.9855 58.8688 21.1578 59.0873 21.404 59.1128L36.4627 60.6716C36.5451 60.6801 36.623 60.7112 36.6873 60.7612L48.4314 69.8967C48.6233 70.046 48.9072 70.0096 49.0552 69.8166L58.1096 58.0098C58.1591 57.9452 58.2266 57.8954 58.3042 57.8664L72.4803 52.5528C72.712 52.4659 72.8236 52.211 72.7254 51.9925L66.721 38.6269C66.6882 38.5538 66.6778 38.473 66.6911 38.3939L69.1231 23.9448C69.1628 23.7086 68.9905 23.4901 68.7444 23.4647L53.6856 21.9059C53.6032 21.8973 53.5253 21.8663 53.4611 21.8163L41.7169 12.6808Z" fill="black"/>
<defs>
<filter id="filter0_d_2015_5043" x="80.6299" y="87.2017" width="34.7388" height="9.7998" filterUnits="userSpaceOnUse" color-interpolation-filters="sRGB">
<feFlood flood-opacity="0" result="BackgroundImageFix"/>
<feColorMatrix in="SourceAlpha" type="matrix" values="0 0 0 0 0 0 0 0 0 0 0 0 0 0 0 0 0 0 127 0" result="hardAlpha"/>
<feOffset dy="1"/>
<feComposite in2="hardAlpha" operator="out"/>
<feColorMatrix type="matrix" values="0 0 0 0 0 0 0 0 0 0 0 0 0 0 0 0 0 0 1 0"/>
<feBlend mode="normal" in2="BackgroundImageFix" result="effect1_dropShadow_2015_5043"/>
<feBlend mode="normal" in="SourceGraphic" in2="effect1_dropShadow_2015_5043" result="shape"/>
</filter>
<filter id="filter1_d_2015_5043" x="79.5747" y="58.23" width="136.729" height="14.8401" filterUnits="userSpaceOnUse" color-interpolation-filters="sRGB">
<feFlood flood-opacity="0" result="BackgroundImageFix"/>
<feColorMatrix in="SourceAlpha" type="matrix" values="0 0 0 0 0 0 0 0 0 0 0 0 0 0 0 0 0 0 127 0" result="hardAlpha"/>
<feOffset dy="1.2"/>
<feComposite in2="hardAlpha" operator="out"/>
<feColorMatrix type="matrix" values="0 0 0 0 0 0 0 0 0 0 0 0 0 0 0 0 0 0 1 0"/>
<feBlend mode="normal" in2="BackgroundImageFix" result="effect1_dropShadow_2015_5043"/>
<feBlend mode="normal" in="SourceGraphic" in2="effect1_dropShadow_2015_5043" result="shape"/>
</filter>
<filter id="filter2_d_2015_5043" x="164.173" y="85.7485" width="12.9888" height="11.4592" filterUnits="userSpaceOnUse" color-interpolation-filters="sRGB">
<feFlood flood-opacity="0" result="BackgroundImageFix"/>
<feColorMatrix in="SourceAlpha" type="matrix" values="0 0 0 0 0 0 0 0 0 0 0 0 0 0 0 0 0 0 127 0" result="hardAlpha"/>
<feOffset dy="1"/>
<feComposite in2="hardAlpha" operator="out"/>
<feColorMatrix type="matrix" values="0 0 0 0 0 0 0 0 0 0 0 0 0 0 0 0 0 0 1 0"/>
<feBlend mode="normal" in2="BackgroundImageFix" result="effect1_dropShadow_2015_5043"/>
<feBlend mode="normal" in="SourceGraphic" in2="effect1_dropShadow_2015_5043" result="shape"/>
</filter>
<filter id="filter3_d_2015_5043" x="180.797" y="87.29" width="29.4297" height="9.41992" filterUnits="userSpaceOnUse" color-interpolation-filters="sRGB">
<feFlood flood-opacity="0" result="BackgroundImageFix"/>
<feColorMatrix in="SourceAlpha" type="matrix" values="0 0 0 0 0 0 0 0 0 0 0 0 0 0 0 0 0 0 127 0" result="hardAlpha"/>
<feOffset dy="1"/>
<feComposite in2="hardAlpha" operator="out"/>
<feColorMatrix type="matrix" values="0 0 0 0 0 0 0 0 0 0 0 0 0 0 0 0 0 0 1 0"/>
<feBlend mode="normal" in2="BackgroundImageFix" result="effect1_dropShadow_2015_5043"/>
<feBlend mode="normal" in="SourceGraphic" in2="effect1_dropShadow_2015_5043" result="shape"/>
</filter>
</defs>
</svg>
